<svg xmlns="http://www.w3.org/2000/svg" version="1.1" xmlns:xlink="http://www.w3.org/1999/xlink" xmlns:svgjs="http://svgjs.dev/svgjs" width="1000" height="333" viewBox="0 0 1000 333"><g transform="matrix(1,0,0,1,23.37866537592913,2.2490676216669385)"><svg viewBox="0 0 396 132" data-background-color="#001f3f" preserveAspectRatio="xMidYMid meet" height="333" width="1000" xmlns="http://www.w3.org/2000/svg" xmlns:xlink="http://www.w3.org/1999/xlink"><g id="tight-bounds" transform="matrix(1,0,0,1,0.34964362151356454,0.27127825379301385)"><svg viewBox="0 0 395.52 131.53035069119395" height="131.53035069119395" width="395.52"><g><svg viewBox="0 0 702.2317607462305 233.52748219419067" height="131.53035069119395" width="395.52"><g transform="matrix(1,0,0,1,306.7117607462306,53.39702197783231)"><svg viewBox="0 0 395.52 126.73343823852605" height="126.73343823852605" width="395.52"><g id="textblocktransform"><svg viewBox="0 0 395.52 126.73343823852605" height="126.73343823852605" width="395.52" id="textblock"><g><svg viewBox="0 0 395.52 88.77441674854656" height="88.77441674854656" width="395.52"><path d="M394.594 19.04C392.735 9.826 387.435 7.264 387.435 7.264 371.165-2.227 350.86-0.182 332.619 1.182 300.414 1.238 268.339 3.265 236.208 4.352 168.767 4.518 100.749 1.79 33.643 8.517 27.339 10.581-6.54 8.923 1.121 20.22 3.129 24.919 10.456 30.135 10.232 34.447 11.236 35.203 12.631 33.471 13.226 34.558 15.309 37.488 18.711 36.106 21.501 37.839 17.614 42.464 20.403 46.316 23.062 50.352 18.377 51.403 12.371 50.905 9.675 54.388 9.396 56.913 7.89 56.434 6.235 56.323 5.026 56.25 2.59 56.526 2.999 57.318 4.394 60.028-1.594 61.594 2.162 64.248-0.422 67.123 3.948 69.611 3.353 72.726 3.278 73.352 3.687 73.887 4.338 74.034 7.22 74.827 3.018 76.375 3.464 78.052 33.029 89.515 65.104 81.59 95.394 86.861 103.259 83.175 97.346 88.169 100.489 87.395 102.943 86.492 104.728 90.234 107.499 88.114 107.927 87.506 107.276 86.069 108.8 86.345 109.6 86.492 110.307 86.456 110.418 85.608 110.586 84.336 109.117 85.129 108.726 84.465 112.947 81.111 111.906 89.091 115.866 88.759 115.68 87.782 114.528 86.382 116.889 86.566 119.232 85.165 119.306 84.004 121.389 87.156 121.463 87.838 121.835 88.317 122.43 88.649 128.938 85.221 135.409 89.865 142.233 88.317 146.417 86.621 150.433 89.238 154.672 88.593 156.16 88.077 157.666 87.156 159.098 88.704 176.632 89.036 195.319 87.653 211.943 88.759 256.364 86.695 303.836 89.607 350.674 86.879 361.719 85.829 373.192 84.336 383.958 83.138 383.958 83.138 392.679 79.858 392.679 65.114S394.538 52.214 394.817 40.474C395.096 28.734 396.398 28.255 394.538 19.04Z" opacity="1" fill="#fbbf24" data-fill-palette-color="tertiary"></path><g transform="matrix(1,0,0,1,55.76832,26.068561146666667)"><svg width="283.98335999999995" viewBox="1.5 -34.9 273.5977099609375 35.3" height="36.63729445521322" data-palette-color="#1c1917"><g transform="matrix(1,0,0,1,0,0)"><g><svg width="16.411806640625" viewBox="1.78 -36.36 74.21 36.36" height="8.041" data-palette-color="#1c1917" id="scriptelement" x="258.6859033203125" y="-34.9"><path d="M12.91-30.02L1.78-30.02 1.78-36.36 31.64-36.36 31.64-30.02 20.51-30.02 20.51 0 12.91 0 12.91-30.02ZM36.57 0L36.57-36.36 46.06-36.36 56.07-11.93 56.5-11.93 66.51-36.36 75.99-36.36 75.99 0 68.53 0 68.53-23.67 68.23-23.67 58.82-0.18 53.74-0.18 44.33-23.76 44.03-23.76 44.03 0 36.57 0Z" opacity="1" transform="matrix(1,0,0,1,0,0)" fill="#1c1917" class="undefined-123" data-fill-palette-color="quaternary" id="lv-123"></path></svg></g></g><path d="M16.15-29.25L16.15-29.25Q12.75-29.25 10.88-26.65 9-24.05 9-17.6L9-17.6Q9-5.25 15.8-5.25L15.8-5.25Q18.5-5.25 20.6-6.1L20.6-6.1 20.6-11.75Q18.3-12.5 17.45-13.6L17.45-13.6 17.95-17.55 29.65-17.55 30.15-13.6Q29.5-12.8 27.8-12.05L27.8-12.05 27.8-2.8Q25.4-1.05 22.53-0.33 19.65 0.4 15.35 0.4L15.35 0.4Q8.2 0.4 4.85-3.68 1.5-7.75 1.5-16.93 1.5-26.1 5.48-30.5 9.45-34.9 16.38-34.9 23.3-34.9 27.7-31.75L27.7-31.75Q27.7-31.45 27.7-30.6 27.7-29.75 27.35-27.7 27-25.65 26.35-24.35L26.35-24.35 21.75-24.35Q21-25.75 20.75-28.5L20.75-28.5Q18.6-29.25 16.15-29.25ZM51.5-4.15L51 0 39.3 0 38.8-4.15Q39.45-5 41.55-5.8L41.55-5.8 41.55-11.55 33.4-28.5Q31.05-29.3 30.2-30.35L30.2-30.35 30.65-34.25 30.65-34.3 30.7-34.5 42.4-34.5 42.9-30.35Q42.3-29.5 40.6-28.85L40.6-28.85 42.3-25Q43.75-21.7 44.8-18.45L44.8-18.45 45.15-17.45 45.9-17.45Q46.95-21.1 48.65-25L48.65-25 50.25-28.65Q48.25-29.45 47.55-30.35L47.55-30.35 48.05-34.5 59.45-34.5 59.95-30.35Q58.95-29.2 56.65-28.45L56.65-28.45 48.75-11.55 48.75-5.8Q50.75-5 51.5-4.15L51.5-4.15ZM93.84-5.85L93.84-18.85Q93.84-20.85 94.19-25.05L94.19-25.05 94.3-26.25 93.8-26.3Q92.65-22.05 91.8-19.55L91.8-19.55 85.15 0 78.5 0 71.5-19.55Q70.55-21.8 69.8-25.15L69.8-25.15 69.5-26.3 69-26.25Q69.45-21.8 69.45-18.85L69.45-18.85 69.45-5.7Q71.3-5 72.2-3.85L72.2-3.85 71.7 0 61.9 0 61.4-3.85Q62.3-5 64.14-5.7L64.14-5.7 64.14-28.8Q62.09-29.55 61.3-30.65L61.3-30.65 61.8-34.5 73.2-34.5 80.5-14.35Q81.9-11.05 82.3-8.3L82.3-8.3 82.45-7.45 83.15-7.45Q83.34-10.5 84.95-14.35L84.95-14.35 91.9-34.5 103.09-34.5 103.59-30.65Q102.8-29.55 100.75-28.8L100.75-28.8 100.75-5.9Q102.7-5.15 103.5-4.15L103.5-4.15 103 0 91.59 0 91.09-4.1Q91.9-5.1 93.84-5.85L93.84-5.85ZM107.24-34.5L118.59-34.5Q124.49-34.5 127.17-33.77 129.84-33.05 130.99-32.05L130.99-32.05Q133.54-29.85 133.54-25.3L133.54-25.3Q133.54-21.9 129.89-18.85L129.89-18.85Q134.54-16.5 134.54-10.1L134.54-10.1Q134.54-5.1 131.27-2.68 127.99-0.25 121.49 0L121.49 0 107.24 0 106.74-4.15Q107.39-5 109.49-5.8L109.49-5.8 109.49-28.65Q107.44-29.4 106.74-30.35L106.74-30.35 107.24-34.5ZM121.14-14.95L121.14-14.95 116.69-14.95 116.69-5.45 120.14-5.45Q123.54-5.45 125.29-6.45 127.04-7.45 127.04-10.05 127.04-12.65 125.67-13.8 124.29-14.95 121.14-14.95ZM119.29-29.05L119.29-29.05 116.69-29.05 116.69-20.4 120.79-20.4Q123.34-20.4 124.69-21.7 126.04-23 126.04-24.88 126.04-26.75 125.09-27.7 124.14-28.65 122.89-28.85 121.64-29.05 119.29-29.05ZM161.29-8.7L161.29 0 138.09 0 137.59-4.15Q138.24-5 140.34-5.8L140.34-5.8 140.34-28.65Q138.29-29.4 137.59-30.35L137.59-30.35 138.09-34.5 160.89-34.5 160.89-25.8 157.19-25.35Q156.04-26.35 155.34-29.05L155.34-29.05 147.54-29.05 147.54-20.45 154.49-20.45Q155.09-21.95 155.74-22.55L155.74-22.55 158.89-22.2 158.89-13.3 155.74-12.9Q155.09-13.4 154.49-15L154.49-15 147.54-15 147.54-5.45 155.74-5.45Q156.39-8.05 157.59-9.15L157.59-9.15 161.29-8.7ZM175.59-34.75L182.44-34.75 192.39-5.9Q194.49-5.15 195.34-4.15L195.34-4.15 194.84 0 183.14 0 182.64-4.15Q183.24-4.95 185.04-5.65L185.04-5.65 183.69-9.85 173.69-9.85 172.44-5.8Q174.19-5.1 175.04-4.15L175.04-4.15 174.54 0 163.14 0 162.64-4.15Q163.54-5.3 165.99-6.05L165.99-6.05 175.59-34.75ZM178.99-27.75L178.29-27.75Q178.29-24.7 177.04-20.65L177.04-20.65 175.09-14.45 182.24-14.45 180.34-20.55Q179.19-24.05 179.04-26.9L179.04-26.9 178.99-27.75ZM212.19-29.05L212.19-29.05Q210.49-29.5 208.63-29.5 206.78-29.5 205.66-28.58 204.53-27.65 204.53-25.98 204.53-24.3 205.38-23.35 206.24-22.4 208.74-21.7L208.74-21.7 213.19-20.4Q216.78-19.35 218.91-17.13 221.03-14.9 221.03-10.6L221.03-10.6Q221.03-5.5 217.36-2.55 213.69 0.4 208.24 0.4L208.24 0.4Q205.24 0.4 202.06-0.38 198.88-1.15 196.78-2.55L196.78-2.55Q196.78-2.85 196.78-3.7 196.78-4.55 197.13-6.6 197.49-8.65 198.13-9.95L198.13-9.95 202.88-9.95Q203.69-8.4 203.84-5.8L203.84-5.8Q205.59-5.05 207.91-5.05 210.24-5.05 211.74-6.15 213.24-7.25 213.24-9.3L213.24-9.3Q213.24-10.25 213.09-10.88 212.94-11.5 212.16-12.23 211.38-12.95 209.94-13.4L209.94-13.4 204.78-14.9Q196.94-17.15 196.94-24.9L196.94-24.9Q196.94-29.45 200.24-32.18 203.53-34.9 208.86-34.9 214.19-34.9 219.28-32.5L219.28-32.5Q219.28-32.2 219.28-31.35 219.28-30.5 218.94-28.45 218.59-26.4 217.94-25.1L217.94-25.1 213.19-25.1Q212.34-26.3 212.19-29.05ZM222.48-34.45L250.48-34.45 250.48-27.3 247.33-26.9Q246.68-27.4 246.08-29L246.08-29 240.08-29 240.08-5.8Q242.08-5 242.83-4.15L242.83-4.15 242.33 0 230.63 0 230.13-4.15Q230.78-5 232.88-5.8L232.88-5.8 232.88-29 226.88-29Q226.28-27.4 225.63-26.9L225.63-26.9 222.48-27.3 222.48-34.45Z" opacity="1" transform="matrix(1,0,0,1,0,0)" fill="#1c1917" class="wordmark-text-0" data-fill-palette-color="quaternary" id="text-0"></path></svg></g></svg></g><g transform="matrix(1,0,0,1,42.55018677304466,97.42360267435548)"><svg viewBox="0 0 310.41962645391067 29.30983556417058" height="29.30983556417058" width="310.41962645391067"><g transform="matrix(1,0,0,1,0,0)"><svg width="310.41962645391067" viewBox="0.8 -36.15 387.06 36.55" height="29.30983556417058" data-palette-color="#fbbf24"><path d="M28.15-12.5Q28.15-5.95 25.18-2.78 22.2 0.4 15.55 0.4 8.9 0.4 6.23-2.73 3.55-5.85 3.55-12.5L3.55-12.5 3.55-28.65Q1.65-29.35 0.8-30.35L0.8-30.35 1.3-34.5 13-34.5 13.5-30.35Q12.7-29.4 10.75-28.65L10.75-28.65 10.75-12.3Q10.75-8.7 11.93-6.98 13.1-5.25 16.15-5.25 19.2-5.25 20.45-7.03 21.7-8.8 21.7-12.3L21.7-12.3 21.7-28.65Q19.65-29.4 18.95-30.35L18.95-30.35 19.45-34.5 30.4-34.5 30.9-30.35Q30.1-29.4 28.15-28.65L28.15-28.65 28.15-12.5ZM32.35-21.15L32.85-25Q35.6-25.6 37.8-25.6 40-25.6 41.45-25.5L41.45-25.5 41.45-23Q42.7-24.05 44.77-24.73 46.85-25.4 48.75-25.4L48.75-25.4Q53.65-25.4 55.62-23.1 57.6-20.8 57.6-15.15L57.6-15.15 57.6-5.55Q59.55-4.8 60.35-3.85L60.35-3.85 59.85 0 48.35 0 47.85-3.85Q48.55-4.8 50.6-5.55L50.6-5.55 50.6-15.45Q50.6-18.15 49.72-19.07 48.85-20 46.6-20 44.35-20 42.1-18.4L42.1-18.4 42.1-5.55Q44.05-4.8 44.85-3.85L44.85-3.85 44.35 0 32.85 0 32.35-3.85Q33.05-4.8 35.1-5.55L35.1-5.55 35.1-19.45Q33.35-20.05 32.35-21.15L32.35-21.15ZM61.5-31.65L62-35.5Q64.8-36.15 67.2-36.15 69.59-36.15 71.25-36L71.25-36 71.25-5.55Q73.2-4.8 74-3.85L74-3.85 73.5 0 62 0 61.5-3.85Q62.2-4.8 64.25-5.55L64.25-5.55 64.25-29.95Q62.5-30.55 61.5-31.65L61.5-31.65ZM88.04 0.4L88.04 0.4Q82.04 0.4 79.02-2.8 75.99-6 75.99-12.1L75.99-12.1Q75.99-15.8 77.04-18.48 78.09-21.15 79.89-22.6L79.89-22.6Q83.39-25.4 88.04-25.4 92.69-25.4 95.17-23.03 97.64-20.65 97.64-14.5L97.64-14.5Q97.64-10.9 94.09-10.9L94.09-10.9 83.24-10.9Q83.44-7.75 84.87-6.45 86.29-5.15 89.39-5.15L89.39-5.15Q91.09-5.15 92.64-5.55 94.19-5.95 94.89-6.35L94.89-6.35 95.59-6.75 97.09-2.75Q96.79-2.4 96.22-1.88 95.64-1.35 93.32-0.48 90.99 0.4 88.04 0.4ZM83.29-15.05L91.19-15.35Q91.29-16.05 91.29-17.05 91.29-18.05 90.49-19.18 89.69-20.3 87.72-20.3 85.74-20.3 84.69-19.1 83.64-17.9 83.29-15.05L83.29-15.05ZM101.19-21.3L101.19-21.3Q101.19-22.05 101.24-22.9L101.24-22.9Q105.89-25.4 111.24-25.4 116.59-25.4 118.92-23.38 121.24-21.35 121.24-16.65L121.24-16.65 121.24-6Q122.99-5.65 123.99-5.15L123.99-5.15 123.99-0.8Q121.44 0.4 116.69 0.4L116.69 0.4Q116.19-0.9 115.84-2.75L115.84-2.75Q113.69 0.4 108.04 0.4L108.04 0.4Q104.69 0.4 102.32-1.55 99.94-3.5 99.94-6.85 99.94-10.2 102.17-12.13 104.39-14.05 108.79-14.05L108.79-14.05 114.24-14.05 114.24-16.45Q114.24-20.35 110.09-20.35L110.09-20.35Q108.54-20.35 107.54-20.05L107.54-20.05Q107.44-17.95 106.94-16.8L106.94-16.8 102.04-16.8Q101.19-18.55 101.19-21.3ZM110.19-4.7L110.19-4.7Q112.74-4.7 114.24-6.2L114.24-6.2 114.24-10.3 110.74-10.3Q107.14-10.3 107.14-7.55L107.14-7.55Q107.14-6.3 107.92-5.5 108.69-4.7 110.19-4.7ZM135.79-20.9L135.79-20.9Q132.49-20.9 132.49-18.95L132.49-18.95Q132.49-17.1 135.94-16.2L135.94-16.2 139.89-15.15Q145.99-13.55 145.99-8.1L145.99-8.1Q145.99-4.35 143.36-1.98 140.74 0.4 135.01 0.4 129.29 0.4 126.09-1.2L126.09-1.2Q126.04-1.75 126.04-2.3L126.04-2.3Q126.04-5.05 127.14-7.25L127.14-7.25 131.29-7.25Q131.94-6.05 132.14-4.75L132.14-4.75Q133.14-4.45 134.99-4.45L134.99-4.45Q139.39-4.45 139.39-6.95L139.39-6.95Q139.39-7.75 138.79-8.28 138.19-8.8 136.44-9.3L136.44-9.3 132.49-10.45Q129.44-11.3 127.74-12.98 126.04-14.65 126.04-17.93 126.04-21.2 128.69-23.3 131.34-25.4 136.26-25.4 141.19-25.4 144.59-23.95L144.59-23.95Q144.64-23.45 144.64-22.95L144.64-22.95Q144.64-20.35 143.54-18.15L143.54-18.15 139.44-18.15Q138.79-19.3 138.59-20.55L138.59-20.55Q137.19-20.9 135.79-20.9ZM147.74-31.65L148.24-35.5Q151.04-36.15 153.44-36.15 155.84-36.15 157.49-36L157.49-36 157.49-23.5Q158.69-24.3 160.69-24.85 162.69-25.4 164.24-25.4L164.24-25.4Q169.19-25.4 171.09-23 172.99-20.6 172.99-15.7L172.99-15.7 172.99-5.55Q174.94-4.8 175.74-3.85L175.74-3.85 175.24 0 163.74 0 163.24-3.85Q163.94-4.8 165.99-5.55L165.99-5.55 165.99-15.45Q165.99-18.15 165.11-19.07 164.24-20 161.94-20 159.64-20 157.49-18.4L157.49-18.4 157.49-5.55Q159.44-4.8 160.24-3.85L160.24-3.85 159.74 0 148.24 0 147.74-3.85Q148.44-4.8 150.49-5.55L150.49-5.55 150.49-29.95Q148.74-30.55 147.74-31.65L147.74-31.65ZM194.18-31.3L197.83-31.3 197.83-25 204.98-25 204.98-20.8 197.83-20.8 197.83-8.15Q197.83-6.55 198.28-5.83 198.73-5.1 200.43-5.1 202.13-5.1 204.08-5.85L204.08-5.85 205.58-1.95Q201.73 0 197.71 0 193.68 0 192.26-1.73 190.83-3.45 190.83-6.75L190.83-6.75 190.83-20.8 188.58-20.8 188.03-23.85Q188.83-24.8 191.33-25.75L191.33-25.75Q191.93-29.85 194.18-31.3L194.18-31.3ZM206.73-31.65L207.23-35.5Q210.03-36.15 212.43-36.15 214.83-36.15 216.48-36L216.48-36 216.48-23.5Q217.68-24.3 219.68-24.85 221.68-25.4 223.23-25.4L223.23-25.4Q228.18-25.4 230.08-23 231.98-20.6 231.98-15.7L231.98-15.7 231.98-5.55Q233.93-4.8 234.73-3.85L234.73-3.85 234.23 0 222.73 0 222.23-3.85Q222.93-4.8 224.98-5.55L224.98-5.55 224.98-15.45Q224.98-18.15 224.1-19.07 223.23-20 220.93-20 218.63-20 216.48-18.4L216.48-18.4 216.48-5.55Q218.43-4.8 219.23-3.85L219.23-3.85 218.73 0 207.23 0 206.73-3.85Q207.43-4.8 209.48-5.55L209.48-5.55 209.48-29.95Q207.73-30.55 206.73-31.65L206.73-31.65ZM248.48 0.4L248.48 0.4Q242.48 0.4 239.45-2.8 236.43-6 236.43-12.1L236.43-12.1Q236.43-15.8 237.48-18.48 238.53-21.15 240.33-22.6L240.33-22.6Q243.83-25.4 248.48-25.4 253.13-25.4 255.6-23.03 258.08-20.65 258.08-14.5L258.08-14.5Q258.08-10.9 254.53-10.9L254.53-10.9 243.68-10.9Q243.88-7.75 245.3-6.45 246.73-5.15 249.83-5.15L249.83-5.15Q251.53-5.15 253.08-5.55 254.63-5.95 255.33-6.35L255.33-6.35 256.03-6.75 257.53-2.75Q257.23-2.4 256.65-1.88 256.08-1.35 253.75-0.48 251.43 0.4 248.48 0.4ZM243.73-15.05L251.63-15.35Q251.73-16.05 251.73-17.05 251.73-18.05 250.93-19.18 250.13-20.3 248.15-20.3 246.18-20.3 245.13-19.1 244.08-17.9 243.73-15.05L243.73-15.05ZM270.32-31.65L270.82-35.5Q273.62-36.15 276.02-36.15 278.42-36.15 280.07-36L280.07-36 280.07-23.5Q281.12-24.25 282.87-24.83 284.62-25.4 286.22-25.4L286.22-25.4Q291.67-25.4 293.87-22.6 296.07-19.8 296.07-13.05L296.07-13.05Q296.07-9.3 295.05-6.58 294.02-3.85 292.27-2.4L292.27-2.4Q288.97 0.4 284.47 0.4L284.47 0.4Q281.07 0.4 277.77-1.3L277.77-1.3Q276.82 0 275.57 0L275.57 0 273.07 0 273.07-29.95Q271.32-30.55 270.32-31.65L270.32-31.65ZM284.07-4.7L284.07-4.7Q288.87-4.7 288.87-12.75L288.87-12.75Q288.87-17 288.05-18.53 287.22-20.05 285.17-20.05L285.17-20.05Q282.07-20.05 280.07-18.4L280.07-18.4 280.07-5.55Q282.22-4.7 284.07-4.7ZM310.72 0.4L310.72 0.4Q304.72 0.4 301.69-2.8 298.67-6 298.67-12.1L298.67-12.1Q298.67-15.8 299.72-18.48 300.77-21.15 302.57-22.6L302.57-22.6Q306.07-25.4 310.72-25.4 315.37-25.4 317.84-23.03 320.32-20.65 320.32-14.5L320.32-14.5Q320.32-10.9 316.77-10.9L316.77-10.9 305.92-10.9Q306.12-7.75 307.54-6.45 308.97-5.15 312.07-5.15L312.07-5.15Q313.77-5.15 315.32-5.55 316.87-5.95 317.57-6.35L317.57-6.35 318.27-6.75 319.77-2.75Q319.47-2.4 318.89-1.88 318.32-1.35 315.99-0.48 313.67 0.4 310.72 0.4ZM305.97-15.05L313.87-15.35Q313.97-16.05 313.97-17.05 313.97-18.05 313.17-19.18 312.37-20.3 310.39-20.3 308.42-20.3 307.37-19.1 306.32-17.9 305.97-15.05L305.97-15.05ZM323.87-21.3L323.87-21.3Q323.87-22.05 323.92-22.9L323.92-22.9Q328.57-25.4 333.92-25.4 339.27-25.4 341.59-23.38 343.92-21.35 343.92-16.65L343.92-16.65 343.92-6Q345.67-5.65 346.67-5.15L346.67-5.15 346.67-0.8Q344.12 0.4 339.37 0.4L339.37 0.4Q338.87-0.9 338.52-2.75L338.52-2.75Q336.37 0.4 330.72 0.4L330.72 0.4Q327.37 0.4 324.99-1.55 322.62-3.5 322.62-6.85 322.62-10.2 324.84-12.13 327.07-14.05 331.47-14.05L331.47-14.05 336.92-14.05 336.92-16.45Q336.92-20.35 332.77-20.35L332.77-20.35Q331.22-20.35 330.22-20.05L330.22-20.05Q330.12-17.95 329.62-16.8L329.62-16.8 324.72-16.8Q323.87-18.55 323.87-21.3ZM332.87-4.7L332.87-4.7Q335.42-4.7 336.92-6.2L336.92-6.2 336.92-10.3 333.42-10.3Q329.82-10.3 329.82-7.55L329.82-7.55Q329.82-6.3 330.59-5.5 331.37-4.7 332.87-4.7ZM358.46-20.9L358.46-20.9Q355.16-20.9 355.16-18.95L355.16-18.95Q355.16-17.1 358.61-16.2L358.61-16.2 362.56-15.15Q368.66-13.55 368.66-8.1L368.66-8.1Q368.66-4.35 366.04-1.98 363.41 0.4 357.69 0.4 351.96 0.4 348.76-1.2L348.76-1.2Q348.71-1.75 348.71-2.3L348.71-2.3Q348.71-5.05 349.81-7.25L349.81-7.25 353.96-7.25Q354.61-6.05 354.81-4.75L354.81-4.75Q355.81-4.45 357.66-4.45L357.66-4.45Q362.06-4.45 362.06-6.95L362.06-6.95Q362.06-7.75 361.46-8.28 360.86-8.8 359.11-9.3L359.11-9.3 355.16-10.45Q352.11-11.3 350.41-12.98 348.71-14.65 348.71-17.93 348.71-21.2 351.36-23.3 354.01-25.4 358.94-25.4 363.86-25.4 367.26-23.95L367.26-23.95Q367.31-23.45 367.31-22.95L367.31-22.95Q367.31-20.35 366.21-18.15L366.21-18.15 362.11-18.15Q361.46-19.3 361.26-20.55L361.26-20.55Q359.86-20.9 358.46-20.9ZM376.46-31.3L380.11-31.3 380.11-25 387.26-25 387.26-20.8 380.11-20.8 380.11-8.15Q380.11-6.55 380.56-5.83 381.01-5.1 382.71-5.1 384.41-5.1 386.36-5.85L386.36-5.85 387.86-1.95Q384.01 0 379.99 0 375.96 0 374.54-1.73 373.11-3.45 373.11-6.75L373.11-6.75 373.11-20.8 370.86-20.8 370.31-23.85Q371.11-24.8 373.61-25.75L373.61-25.75Q374.21-29.85 376.46-31.3L376.46-31.3Z" opacity="1" transform="matrix(1,0,0,1,0,0)" fill="#fbbf24" class="slogan-text-1" data-fill-palette-color="secondary" id="text-1"></path></svg></g></svg></g></svg></g></svg></g><g><svg viewBox="0 0 298.0625748204217 233.52748219419067" height="233.52748219419067" width="298.0625748204217"><g><svg xmlns="http://www.w3.org/2000/svg" data-name="Layer 1" viewBox="1.0038638643190678 7.6999999999999975 61.99227227136188 48.57" x="0" y="0" height="233.52748219419067" width="298.0625748204217" class="icon-icon-0" data-fill-palette-color="accent" id="icon-0"><path d="M17.74 36.16a9.53 9.53 0 0 0 3.41 5.34c0.25 0.48 1.19 2.53 0.16 3.76a2.19 2.19 0 0 0-0.52 1.87 4.67 4.67 0 0 0 2.12 2.6 2.77 2.77 0 0 0 0.38 1.47 3.65 3.65 0 0 0 2.11 1.57 2.74 2.74 0 0 0 0.5 1.14c0.94 1.28 3 2.08 6 2.36h0.14c3.06-0.28 5.09-1.08 6-2.36a2.61 2.61 0 0 0 0.5-1.14 3.65 3.65 0 0 0 2.11-1.57 2.77 2.77 0 0 0 0.38-1.47 4.67 4.67 0 0 0 2.12-2.6 2.23 2.23 0 0 0-0.53-1.87 6.25 6.25 0 0 1-0.4-0.86 5 5 0 0 1 0.57-2.9 9.53 9.53 0 0 0 3.41-5.34A17.15 17.15 0 0 0 53 37.83a8.67 8.67 0 0 0 3.16-0.56A6.46 6.46 0 0 0 59.81 34a0.75 0.75 0 0 0-0.05-0.65 0.71 0.71 0 0 0-0.55-0.35 18.27 18.27 0 0 1-7.65-2.36 15 15 0 0 0 9.65-6.15 9.36 9.36 0 0 0 0.6-10.06A13.55 13.55 0 0 0 50.28 7.72h-0.13a0.74 0.74 0 0 0-0.69 0.52 0.72 0.72 0 0 0 0.29 0.81s4.67 3.21 4.13 7.41a3.93 3.93 0 0 1-1.86 3c-1.78 1.12-4.82 1.2-7.76 0.23A12.29 12.29 0 0 0 32 18.61a12.31 12.31 0 0 0-12.27 1.06c-2.94 1-6 0.89-7.76-0.23a3.92 3.92 0 0 1-1.85-3c-0.54-4.2 4.08-7.38 4.13-7.41a0.73 0.73 0 0 0-0.4-1.33h-0.13A13.55 13.55 0 0 0 2.19 14.47a9.36 9.36 0 0 0 0.6 10.06 15 15 0 0 0 9.65 6.15A18.22 18.22 0 0 1 4.79 33a0.71 0.71 0 0 0-0.55 0.35 0.75 0.75 0 0 0 0 0.65A6.46 6.46 0 0 0 7.8 37.27a8.67 8.67 0 0 0 3.16 0.56A17.15 17.15 0 0 0 17.74 36.16Zm37.91-0.23c-2.31 0.87-5.5 0.42-9.24-1.3a5.82 5.82 0 0 0-0.29-2 13.57 13.57 0 0 1-0.53-1.52l1.08 0A24.87 24.87 0 0 0 49.5 31a17.55 17.55 0 0 0 8.41 3.32A5.37 5.37 0 0 1 55.65 35.93ZM52.79 20.68a5.42 5.42 0 0 0 2.53-4c0.41-3.15-1.44-5.72-3-7.25a12.2 12.2 0 0 1 8.17 5.77A7.88 7.88 0 0 1 60 23.72c-2.7 4.05-7.13 5.4-10.38 5.82a22.51 22.51 0 0 1-4.41 0.14 36.8 36.8 0 0 1-0.61-8.39C47.73 22.14 50.8 21.92 52.79 20.68Zm-21.14-0.62a0.73 0.73 0 0 0 0.7 0 11 11 0 0 1 10.83 0.63c-0.09 1.7-0.3 8 1.59 12.52 0 0 1.29 3.71-3 7.27a0.74 0.74 0 0 0-0.16 0.19 7.76 7.76 0 0 0-0.81 2.3 6.08 6.08 0 0 0-3.82-1 0.73 0.73 0 0 0-0.7 0.75 0.72 0.72 0 0 0 0.76 0.7h0.24A4.47 4.47 0 0 1 41 45.05a3.36 3.36 0 0 0 0.62 1.14 0.77 0.77 0 0 1 0.21 0.67c-0.13 0.7-1.19 1.51-1.82 1.85a0.74 0.74 0 0 0-0.35 0.84 1.35 1.35 0 0 1-0.16 0.92 2.68 2.68 0 0 1-1.73 1.05 0.7 0.7 0 0 0-0.54 0.83 1.12 1.12 0 0 1-0.29 0.76c-0.4 0.5-1.57 1.39-4.89 1.71-3.32-0.32-4.49-1.21-4.89-1.71a1.15 1.15 0 0 1-0.29-0.74h0a0.72 0.72 0 0 0-0.54-0.85 2.56 2.56 0 0 1-1.82-1.21 1.42 1.42 0 0 1-0.08-0.76h0a0.72 0.72 0 0 0-0.35-0.83c-0.63-0.35-1.68-1.16-1.81-1.86a0.73 0.73 0 0 1 0.21-0.67 3.37 3.37 0 0 0 0.4-0.61l0 0a4.44 4.44 0 0 1 4.19-2.17 0.73 0.73 0 1 0 0.06-1.45 6 6 0 0 0-3.94 1.14 7.59 7.59 0 0 0-0.82-2.39 0.74 0.74 0 0 0-0.16-0.19 7.87 7.87 0 0 1-3.14-5.36A0.86 0.86 0 0 0 19 35a4.67 4.67 0 0 1 0.18-1.72c1.9-4.52 1.69-10.85 1.59-12.55A10.91 10.91 0 0 1 31.65 20.06ZM4 23.73a7.88 7.88 0 0 1-0.54-8.57 12.2 12.2 0 0 1 8.17-5.77c-1.52 1.53-3.36 4.1-3 7.25a5.43 5.43 0 0 0 2.52 4c2 1.24 5.06 1.46 8.18 0.61a36.74 36.74 0 0 1-0.6 8.39 22.48 22.48 0 0 1-4.41-0.14h0C11.1 29.11 6.68 27.75 4 23.73Zm4.35 12.2a5.37 5.37 0 0 1-2.26-1.59A17.46 17.46 0 0 0 14.49 31a24.87 24.87 0 0 0 2.83 0.16l1.09 0c-0.16 0.54-0.34 1.06-0.54 1.55a6.17 6.17 0 0 0-0.29 1.92C13.85 36.35 10.66 36.8 8.35 35.93Z" fill="#fbbf24" data-fill-palette-color="accent"></path><path d="M35.48 38.52h0.1a0.72 0.72 0 0 0 0.62-0.81 7.43 7.43 0 0 1 0.12-3 1.79 1.79 0 0 0 0.3 0.32 1.76 1.76 0 0 0 2.48-0.24 1.69 1.69 0 0 0 0.39-1 0.55 0.55 0 0 1-0.53-0.55 0.53 0.53 0 0 1 0.31-0.49 1.76 1.76 0 0 0-0.41-0.49 2 2 0 0 0-0.5-0.29c0.4-0.27 0.82-0.51 1.23-0.74 1.17-0.66 2.37-1.34 2.68-2.68 0.8-3.46-4.49-5.36-4.71-5.44a0.72 0.72 0 0 0-0.93 0.44 0.74 0.74 0 0 0 0.45 0.93s4.28 1.58 3.78 3.74c-0.16 0.68-0.86 1.11-2 1.74-2 1.15-4.8 2.71-4.12 7.88A0.73 0.73 0 0 0 35.48 38.52Z" fill="#fbbf24" data-fill-palette-color="accent"></path><path d="M24.41 31.28c0.41 0.23 0.83 0.47 1.23 0.74a1.81 1.81 0 0 0-0.5 0.29 1.76 1.76 0 0 0-0.41 0.49 0.53 0.53 0 0 1 0.31 0.49 0.55 0.55 0 0 1-0.53 0.55 1.69 1.69 0 0 0 0.39 1 1.76 1.76 0 0 0 2.48 0.24 1.79 1.79 0 0 0 0.3-0.32 7.43 7.43 0 0 1 0.12 3 0.72 0.72 0 0 0 0.62 0.81h0.1a0.73 0.73 0 0 0 0.72-0.63c0.68-5.17-2.09-6.73-4.12-7.88-1.12-0.63-1.82-1.06-2-1.74-0.5-2.16 3.74-3.73 3.78-3.74a0.74 0.74 0 0 0 0.45-0.93 0.72 0.72 0 0 0-0.93-0.44c-0.22 0.08-5.51 2-4.71 5.44C22 29.94 23.24 30.62 24.41 31.28Z" fill="#fbbf24" data-fill-palette-color="accent"></path><path d="M34.08 52.2h0.08a0.73 0.73 0 0 0 0.65-0.8 6.75 6.75 0 0 1 0-0.88 2.19 2.19 0 0 0 1.72-0.42 3.3 3.3 0 0 0 1-4.09 0.71 0.71 0 0 0-0.77-0.44 3.84 3.84 0 0 0-3.16 3.09s0 0.05 0 0.07a8.35 8.35 0 0 0-0.21 2.82A0.72 0.72 0 0 0 34.08 52.2Zm2.26-5a1.6 1.6 0 0 1-0.62 1.69c-0.42 0.26-0.58 0.23-0.58 0.23A0.49 0.49 0 0 1 35 48.9 2.59 2.59 0 0 1 36.34 47.19Z" fill="#fbbf24" data-fill-palette-color="accent"></path><path d="M26.48 46a3.3 3.3 0 0 0 1 4.09 2.19 2.19 0 0 0 1.72 0.42 6.86 6.86 0 0 1 0 0.88 0.73 0.73 0 0 0 0.65 0.8h0.08a0.72 0.72 0 0 0 0.72-0.65 8.35 8.35 0 0 0-0.21-2.82 0.19 0.19 0 0 1 0-0.07 3.84 3.84 0 0 0-3.16-3.09A0.71 0.71 0 0 0 26.48 46Zm1.17 1.18A2.6 2.6 0 0 1 29 48.91a0.4 0.4 0 0 1-0.11 0.2s-0.16 0-0.58-0.23A1.63 1.63 0 0 1 27.65 47.19Z" fill="#fbbf24" data-fill-palette-color="accent"></path></svg></g></svg></g></svg></g><defs></defs></svg><rect width="395.52" height="131.53035069119395" fill="none" stroke="none" visibility="hidden"></rect></g></svg></g></svg>